<?xml version="1.0" encoding="utf-8"?>
<!-- Generator: Adobe Illustrator 16.0.0, SVG Export Plug-In . SVG Version: 6.00 Build 0)  -->
<!DOCTYPE svg PUBLIC "-//W3C//DTD SVG 1.1//EN" "http://www.w3.org/Graphics/SVG/1.1/DTD/svg11.dtd">
<svg version="1.1" id="Layer_1" xmlns="http://www.w3.org/2000/svg" xmlns:xlink="http://www.w3.org/1999/xlink" x="0px" y="0px"
	 width="48px" height="48px" viewBox="0 0 48 48" enable-background="new 0 0 48 48" xml:space="preserve">
<path fill="none" d="M0,0h48v48H0V0z"/>
<path d="M38,6H10c-2.21,0-4,1.79-4,4v28c0,2.21,1.79,4,4,4h28c2.21,0,4-1.79,4-4V10C42,7.79,40.21,6,38,6z M38,38H10V10h28V38z
	 M30,30h-8v-4h4c2.21,0,4-1.79,4-4v-4c0-2.21-1.79-4-4-4h-8v4h8v4h-4c-2.21,0-4,1.79-4,4v8h12V30z"/>
</svg>
