<?xml version="1.0" encoding="utf-8"?>
<!-- Generator: Adobe Illustrator 16.0.0, SVG Export Plug-In . SVG Version: 6.00 Build 0)  -->
<!DOCTYPE svg PUBLIC "-//W3C//DTD SVG 1.1//EN" "http://www.w3.org/Graphics/SVG/1.1/DTD/svg11.dtd">
<svg version="1.1" id="Layer_1" xmlns="http://www.w3.org/2000/svg" xmlns:xlink="http://www.w3.org/1999/xlink" x="0px" y="0px"
	 width="1280px" height="720px" viewBox="0 0 1280 720" enable-background="new 0 0 1280 720" xml:space="preserve">
<g id="Layer_1_1_" display="none">
	<g display="inline">
		<g>
			<polygon fill="#13B3E8" points="22.067,164.235 1,140.345 1,66.506 65.506,2 219.515,2 202.792,23.068 74.233,23.068 
				22.067,75.233 			"/>
		</g>
		<g>
			<polygon fill="#13B3E8" points="1258.933,164.235 1280,140.345 1280,66.506 1215.494,2 1061.484,2 1078.209,23.068 
				1206.768,23.068 1258.933,75.233 			"/>
		</g>
		<polygon fill="#13B3E8" points="22.067,557.764 1,581.654 1,655.494 65.506,720 219.515,720 202.792,698.933 74.233,698.933 
			22.067,646.767 		"/>
		<polygon fill="#13B3E8" points="1258.933,557.764 1280,581.654 1280,655.494 1215.494,720 1061.484,720 1078.209,698.933 
			1206.768,698.933 1258.933,646.767 		"/>
	</g>
</g>
<g id="Layer_2">
	<line fill="none" stroke="#13B3E8" stroke-width="3" stroke-miterlimit="10" x1="5.742" y1="647.164" x2="5.742" y2="125.546"/>
	<path fill="none" stroke="#13B3E8" stroke-width="7" stroke-miterlimit="10" d="M64.843,714.747
		c-32.637,0-59.101-30.255-59.101-67.583"/>
	
		<line fill="none" stroke="#13B3E8" stroke-width="3" stroke-miterlimit="10" x1="1215.648" y1="714.747" x2="64.843" y2="714.747"/>
	<path fill="none" stroke="#13B3E8" stroke-width="7" stroke-miterlimit="10" d="M1274.742,647.164
		c0,37.328-26.456,67.583-59.094,67.583"/>
	
		<line fill="none" stroke="#13B3E8" stroke-width="3" stroke-miterlimit="10" x1="1274.742" y1="125.546" x2="1274.742" y2="647.164"/>
	<path fill="none" stroke="#13B3E8" stroke-width="7" stroke-miterlimit="10" d="M1215.649,57.963
		c32.637,0,59.093,30.255,59.093,67.583"/>
	<path fill="none" stroke="#13B3E8" stroke-width="7" stroke-miterlimit="10" d="M5.742,125.546
		c0-37.328,26.464-67.583,59.101-67.583"/>
	<path opacity="0.6" enable-background="new    " d="M1245.195,636.938c0,28.646-19.455,51.873-43.451,51.873H78.748
		c-23.999,0-43.456-23.227-43.456-51.873V154.37c0-28.646,19.457-51.87,43.456-51.87h1122.996c23.996,0,43.451,23.224,43.451,51.87
		V636.938L1245.195,636.938z"/>
	<line fill="none" stroke="#13B3E8" stroke-width="3" stroke-miterlimit="10" x1="476.935" y1="90.779" x2="476.935" y2="25.147"/>
	<path fill="none" stroke="#13B3E8" stroke-width="3" stroke-miterlimit="10" d="M485.438,99.283c-4.695,0-8.504-3.808-8.504-8.504"
		/>
	<line fill="none" stroke="#13B3E8" stroke-width="3" stroke-miterlimit="10" x1="511" y1="99.283" x2="485.438" y2="99.283"/>
	<line fill="none" stroke="#13B3E8" stroke-width="3" stroke-miterlimit="10" x1="485.438" y1="16.644" x2="511" y2="16.644"/>
	<path fill="none" stroke="#13B3E8" stroke-width="3" stroke-miterlimit="10" d="M476.935,25.147c0-4.696,3.809-8.504,8.505-8.504"
		/>
	<line fill="none" stroke="#13B3E8" stroke-width="3" stroke-miterlimit="10" x1="64.843" y1="57.963" x2="478" y2="57.963"/>
	<line fill="none" stroke="#13B3E8" stroke-width="3" stroke-miterlimit="10" x1="803.561" y1="90.779" x2="803.561" y2="25.147"/>
	<path fill="none" stroke="#13B3E8" stroke-width="3" stroke-miterlimit="10" d="M795.056,99.283c4.696,0,8.505-3.808,8.505-8.504"
		/>
	<path fill="none" stroke="#13B3E8" stroke-width="3" stroke-miterlimit="10" d="M803.561,25.147c0-4.696-3.809-8.504-8.505-8.504"
		/>
	<line fill="none" stroke="#13B3E8" stroke-width="3" stroke-miterlimit="10" x1="1215.649" y1="57.963" x2="802.494" y2="57.963"/>
	<line fill="none" stroke="#13B3E8" stroke-width="3" stroke-miterlimit="10" x1="795.056" y1="99.283" x2="769.494" y2="99.283"/>
	<line fill="none" stroke="#13B3E8" stroke-width="3" stroke-miterlimit="10" x1="795.056" y1="16.644" x2="769.494" y2="16.644"/>
</g>
</svg>
